PathFileType	4	(X/Y/Z)	C:/Users/beibeiliu/ov580/test_trc/User2\sequence.5_training_dense_right.trc
DataRate	CameraRate	NumFrames	NumMarkers	Units	OrigDataRate	OrigDataStartFrame	OrigNumFrames
120	120	8	19	mm	120	105	417
Frame#	Time	ThumbCMC			ThumbMCP			ThumbIP			ThumbTip			IndexMCP			IndexPIP			IndexTip			MiddleMCP			MiddlePIP			MiddleTip			RingMCP			RingPIP			RingTip			PinkyMCP			PinkyPIP			PinkyTip			BackHand1			BackHand2			BackHand3	
		X0	Y0	Z0	X1	Y1	Z1	X2	Y2	Z2	X3	Y3	Z3	X4	Y4	Z4	X5	Y5	Z5	X6	Y6	Z6	X7	Y7	Z7	X8	Y8	Z8	X9	Y9	Z9	X10	Y10	Z10	X11	Y11	Z11	X12	Y12	Z12	X13	Y13	Z13	X14	Y14	Z14	X15	Y15	Z15	X16	Y16	Z16	X17	Y17	Z17	X18	Y18	Z18	
104	0.866667	44.7478	7.78417	102.476	23.3333	-18.7324	80.7916	22.3278	-40.0167	52.9766	31.1987	-54.2932	33.3604	37.0914	9.7571	18.652	29.2686	-9.3003	-5.73416	29.3384	-31.4889	-23.4411	58.2858	-2.81202	7.66521	54.6904	-39.1369	2.97444	52.9929	-60.1663	36.4858	81.3826	-22.1033	16.9008	69.3956	-51.663	26.1239	68.4455	-52.9586	62.6032	101.037	-26.8174	29.7438	84.8972	-53.4231	45.0305	74.9762	-38.7135	76.4433	99.9672	25.7838	62.145	108.583	33.4324	94.7806	71.487	35.7702	83.6805	
105	0.875	41.8968	8.40539	101.405	22.7569	-19.2119	81.8224	18.3265	-42.2207	52.4096	30.7111	-54.8082	31.1785	36.4824	7.47717	17.0801	29.1998	-10.2068	-3.21953	26.7898	-31.4599	-20.7672	58.9224	-3.61074	8.75928	53.2135	-37.2139	2.00966	50.0518	-60.0352	36.6201	76.6225	-23.9124	16.4353	66.9113	-51.9374	27.1525	63.1742	-53.9416	60.2067	98.5555	-28.2716	30.0332	79.964	-52.8506	47.5762	74.7796	-40.0091	75.2892	97.527	23.6179	59.4358	104.943	34.1855	93.3163	66.3234	35.4803	81.7488	
106	0.883333	36.6291	7.72176	103.393	20.4232	-19.4298	82.9461	17.3751	-41.8066	52.4991	28.1897	-55.4106	34.3748	38.1393	8.81048	17.4136	31.6134	-5.03788	-3.47304	26.491	-25.8374	-26.3732	59.648	-4.92062	8.35073	51.8584	-40.4973	3.08539	48.2364	-60.9781	39.9997	75.3696	-22.7299	16.5507	67.13	-50.8577	25.3001	60.3905	-53.2104	59.3197	99.0934	-27.9645	31.4428	81.4098	-54.691	49.4669	76.5389	-42.9286	76.1364	99.8318	23.9895	58.5671	107.925	32.8854	93.5864	65.9591	36.128	80.8737	
107	0.891667	36.4516	6.60411	104.391	24.0827	-19.7082	81.5668	18.267	-41.6488	51.844	26.3685	-56.0075	31.1632	34.4506	14.799	18.972	24.5893	2.7003	-6.77344	22.0067	-15.0306	-32.0959	55.303	-3.76204	7.57782	47.8251	-38.4079	3.98272	49.6371	-59.6539	36.493	73.9791	-21.4261	17.8052	67.9056	-53.603	27.7289	59.4955	-52.5575	60.2714	95.8445	-30.4514	30.4828	79.654	-53.8327	45.1115	70.4394	-39.6483	75.6436	97.8356	22.7887	60.089	102.621	33.0357	91.7183	65.0542	36.1541	83.984	
108	0.9	38.1832	6.9062	104.252	19.5702	-19.853	80.0978	12.7768	-42.8194	53.3052	26.203	-54.4818	31.1382	34.1846	18.8641	21.2684	24.7691	10.1445	-8.18441	18.8796	-0.45377	-33.6277	53.9186	0.502399	12.8669	49.7738	-37.6916	3.86311	44.5118	-56.9844	38.6963	72.2123	-22.8979	16.9083	66.1584	-52.5072	26.8361	60.2315	-53.2554	63.8857	92.0173	-31.1759	29.8134	76.2916	-51.7378	44.8452	70.0161	-39.8411	77.135	96.8472	22.3405	62.0483	99.8251	33.6769	93.3735	64.0677	38.1179	84.1839	
109	0.908333	33.8696	8.56066	104.506	18.9516	-17.1809	83.4492	13.06	-40.8043	51.7615	25.28	-52.6942	30.946	30.9702	22.5338	24.2906	22.9119	16.3742	-2.59044	17.5131	9.4862	-33.7047	54.0867	-2.65778	9.50018	42.3304	-35.5818	6.13005	44.2944	-56.3078	39.9428	73.3814	-21.6584	17.9116	64.6477	-50.0253	24.8176	57.2867	-52.8083	61.3041	89	-27.3891	29.4986	73.3124	-51.8587	47.6297	67.3595	-36.2206	75.0161	93.5792	23.3457	62.5547	102.394	33.3085	93.5776	64.0102	36.0415	86.5354	
110	0.916667	31.0821	9.36734	101.086	16.084	-18.2735	81.9527	7.64438	-40.49	55.3482	20.4424	-53.7859	29.0743	34.1555	22.9802	22.9752	23.0234	17.1232	-6.5459	14.6965	11.4966	-31.6535	49.5357	2.00094	12.1363	42.194	-38.2929	7.80642	40.6705	-55.1583	42.6652	70.9973	-18.4494	18.9815	56.4001	-49.6344	27.364	52.5947	-51.1524	59.0617	88.4272	-27.7025	29.3265	69.6421	-49.4097	45.2214	66.4449	-38.365	77.1571	93.7555	23.1897	63.3759	100.283	31.2829	97.0322	61.8709	38.7171	83.8209	
111	0.925	33.0734	9.14392	101.333	16.1998	-17.2725	83.5481	6.81724	-39.4336	57.0725	18.6484	-53.46	32.7951	31.6682	22.0283	20.9913	21.5882	13.514	-6.90639	13.6166	1.7265	-31.4001	50.6917	1.14935	11.3197	38.7862	-33.65	5.27525	36.9457	-54.0374	44.0589	69.771	-19.6421	18.5157	55.8041	-47.5156	27.0379	51.7449	-49.4227	63.6724	86.2917	-24.4855	31.3986	69.4044	-49.9319	45.8031	65.2722	-40.0473	74.9774	87.1725	25.0079	60.7079	100.8	31.9977	93.9217	60.8779	39.9976	87.7414	
